<svg xmlns="http://www.w3.org/2000/svg" viewBox="0 0 1000 290" width="1000" height="290" role="img" aria-label="Cody Churchwell — Systems Thinker, Pattern Hunter">
  <defs>
    <!-- panel background -->
    <linearGradient id="bg" x1="0" y1="0" x2="0" y2="1">
      <stop offset="0%"  stop-color="#0c1320"/>
      <stop offset="48%" stop-color="#0a0f18"/>
      <stop offset="100%" stop-color="#070a10"/>
    </linearGradient>
    <radialGradient id="vignette" cx="50%" cy="38%" r="75%">
      <stop offset="0%"  stop-color="#11243a" stop-opacity="0.55"/>
      <stop offset="60%" stop-color="#0a0f18" stop-opacity="0"/>
    </radialGradient>
    <!-- radar sweep wedge -->
    <linearGradient id="sweep" x1="0" y1="1" x2="0" y2="0">
      <stop offset="0%"   stop-color="#d4a017" stop-opacity="0"/>
      <stop offset="78%"  stop-color="#d4a017" stop-opacity="0.28"/>
      <stop offset="100%" stop-color="#f3cf63" stop-opacity="0.85"/>
    </linearGradient>
    <radialGradient id="eyeFill" cx="50%" cy="50%" r="50%">
      <stop offset="0%"  stop-color="#13202f"/>
      <stop offset="100%" stop-color="#080d15"/>
    </radialGradient>
    <!-- phosphor glow -->
    <filter id="glow" x="-40%" y="-40%" width="180%" height="180%">
      <feGaussianBlur stdDeviation="2.4" result="b"/>
      <feMerge><feMergeNode in="b"/><feMergeNode in="SourceGraphic"/></feMerge>
    </filter>
    <filter id="glowSoft" x="-60%" y="-60%" width="220%" height="220%">
      <feGaussianBlur stdDeviation="3.4" result="b"/>
      <feMerge><feMergeNode in="b"/><feMergeNode in="SourceGraphic"/></feMerge>
    </filter>
    <clipPath id="panel"><rect x="0" y="0" width="1000" height="290" rx="12"/></clipPath>
    <clipPath id="eyeL"><circle cx="120" cy="124" r="34"/></clipPath>
    <clipPath id="eyeR"><circle cx="200" cy="124" r="34"/></clipPath>
    <pattern id="scan" width="6" height="4" patternUnits="userSpaceOnUse">
      <rect width="6" height="4" fill="none"/>
      <line x1="0" y1="0.5" x2="6" y2="0.5" stroke="#9fb4c9" stroke-width="0.5" opacity="0.05"/>
    </pattern>
  </defs>

  <!-- base -->
  <rect width="1000" height="290" rx="12" fill="url(#bg)"/>
  <g clip-path="url(#panel)">
    <rect width="1000" height="290" fill="url(#vignette)"/>

    <!-- faint console grid -->
    <g stroke="#d4a017" stroke-width="0.5" opacity="0.06">
      <line x1="0" y1="58"  x2="1000" y2="58"/>
      <line x1="0" y1="232" x2="1000" y2="232"/>
      <line x1="272" y1="0" x2="272" y2="290"/>
      <line x1="500" y1="0" x2="500" y2="290"/>
      <line x1="750" y1="0" x2="750" y2="290"/>
    </g>

    <!-- drifting scanlines -->
    <g>
      <rect x="0" y="-4" width="1000" height="298" fill="url(#scan)"/>
      <animateTransform attributeName="transform" type="translate" values="0 0; 0 4" dur="0.5s" repeatCount="indefinite"/>
    </g>

    <!-- ============ LEFT: radar-owl scope cluster ============ -->
    <!-- instrument frame + corner ticks -->
    <g stroke="#d4a017" fill="none" opacity="0.35" stroke-width="1.2">
      <path d="M64 50 h22 M64 50 v22"/>
      <path d="M250 50 h-22 M250 50 v22"/>
      <path d="M64 230 h22 M64 230 v-22"/>
      <path d="M250 230 h-22 M250 230 v-22"/>
    </g>
    <text x="68" y="46" fill="#4ade80" opacity="0.55" font-family="ui-monospace,'SF Mono',Menlo,Consolas,monospace" font-size="9" letter-spacing="2">SCOPE</text>
    <text x="246" y="46" text-anchor="end" fill="#d4a017" opacity="0.5" font-family="ui-monospace,'SF Mono',Menlo,Consolas,monospace" font-size="9" letter-spacing="2">LIVE</text>
    <circle cx="237" cy="42" r="2.6" fill="#4ade80">
      <animate attributeName="opacity" values="1;0.2;1" dur="1.8s" repeatCount="indefinite"/>
    </circle>

    <!-- ear tufts + brow -->
    <path d="M94 90 L88 66 L108 86 Z" fill="#d4a017" opacity="0.9"/>
    <path d="M226 90 L232 66 L212 86 Z" fill="#d4a017" opacity="0.9"/>
    <path d="M86 96 L120 80 L160 70 L200 80 L234 96" fill="none" stroke="#d4a017" stroke-width="2.2" stroke-linecap="round" stroke-linejoin="round" filter="url(#glow)"/>

    <!-- EYES (radar scopes) -->
    <g>
      <!-- left scope -->
      <circle cx="120" cy="124" r="34" fill="url(#eyeFill)" stroke="#d4a017" stroke-width="2" filter="url(#glow)"/>
      <g clip-path="url(#eyeL)">
        <g stroke="#d4a017" fill="none" opacity="0.32" stroke-width="0.8">
          <circle cx="120" cy="124" r="24"/>
          <circle cx="120" cy="124" r="13"/>
          <line x1="86" y1="124" x2="154" y2="124"/>
          <line x1="120" y1="90" x2="120" y2="158"/>
        </g>
        <!-- sweep -->
        <g>
          <path d="M120 124 L104 92 A34 34 0 0 1 136 92 Z" fill="url(#sweep)"/>
          <line x1="120" y1="124" x2="120" y2="90" stroke="#f3cf63" stroke-width="1.4" opacity="0.85"/>
          <animateTransform attributeName="transform" type="rotate" from="0 120 124" to="360 120 124" dur="3.8s" repeatCount="indefinite"/>
        </g>
        <!-- radar ping -->
        <circle cx="120" cy="124" r="3" fill="none" stroke="#4ade80" stroke-width="1.2">
          <animate attributeName="r" values="3;28" dur="3.8s" repeatCount="indefinite"/>
          <animate attributeName="opacity" values="0.8;0" dur="3.8s" repeatCount="indefinite"/>
        </circle>
      </g>
      <circle cx="120" cy="124" r="4.5" fill="#f3cf63" filter="url(#glow)"/>

      <!-- right scope -->
      <circle cx="200" cy="124" r="34" fill="url(#eyeFill)" stroke="#d4a017" stroke-width="2" filter="url(#glow)"/>
      <g clip-path="url(#eyeR)">
        <g stroke="#d4a017" fill="none" opacity="0.32" stroke-width="0.8">
          <circle cx="200" cy="124" r="24"/>
          <circle cx="200" cy="124" r="13"/>
          <line x1="166" y1="124" x2="234" y2="124"/>
          <line x1="200" y1="90" x2="200" y2="158"/>
        </g>
        <g>
          <path d="M200 124 L184 92 A34 34 0 0 1 216 92 Z" fill="url(#sweep)"/>
          <line x1="200" y1="124" x2="200" y2="90" stroke="#f3cf63" stroke-width="1.4" opacity="0.85"/>
          <animateTransform attributeName="transform" type="rotate" from="90 200 124" to="450 200 124" dur="3.8s" repeatCount="indefinite"/>
        </g>
        <circle cx="200" cy="124" r="3" fill="none" stroke="#4ade80" stroke-width="1.2">
          <animate attributeName="r" values="3;28" dur="3.8s" begin="1.9s" repeatCount="indefinite"/>
          <animate attributeName="opacity" values="0.8;0" dur="3.8s" begin="1.9s" repeatCount="indefinite"/>
        </circle>
      </g>
      <circle cx="200" cy="124" r="4.5" fill="#f3cf63" filter="url(#glow)"/>

      <!-- periodic blink -->
      <rect x="84" y="88" width="132" height="72" fill="#0a0f18">
        <animate attributeName="opacity" values="0;0;0;1;0;0;0;0;0;0;0;0" keyTimes="0;0.45;0.47;0.49;0.51;0.53;0.55;0.6;0.7;0.8;0.9;1" dur="6.5s" repeatCount="indefinite"/>
      </rect>
    </g>

    <!-- beak -->
    <path d="M153 150 L160 164 L167 150 Z" fill="#d4a017" opacity="0.9"/>
    <!-- face disc -->
    <path d="M92 150 Q160 196 228 150" fill="none" stroke="#d4a017" stroke-width="1" opacity="0.28"/>

    <!-- ============ RIGHT: type block ============ -->
    <text x="300" y="92" fill="#4ade80" opacity="0.85" font-family="ui-monospace,'SF Mono',Menlo,Consolas,monospace" font-size="12.5" letter-spacing="5">SENTINEL OWL <tspan fill="#5b6573">//</tspan> PHOSPHOR OS</text>

    <text x="298" y="150" fill="#d4a017" font-family="ui-monospace,'SF Mono','JetBrains Mono',Menlo,Consolas,monospace" font-size="45" font-weight="700" letter-spacing="3" filter="url(#glowSoft)">CODY CHURCHWELL
      <animate attributeName="opacity" values="0.92;1;0.92" dur="4s" repeatCount="indefinite"/>
    </text>

    <text x="300" y="180" fill="#9fb0c4" font-family="ui-monospace,'SF Mono',Menlo,Consolas,monospace" font-size="13.5" letter-spacing="3">systems thinker  <tspan fill="#d4a017">/</tspan>  pattern hunter  <tspan fill="#d4a017">/</tspan>  owl</text>

    <!-- terminal status line -->
    <text x="300" y="216" font-family="ui-monospace,'SF Mono',Menlo,Consolas,monospace" font-size="13.5" letter-spacing="0.5">
      <tspan fill="#4ade80">&#8250; </tspan><tspan fill="#c0c8d4">reverse-engineering complex systems</tspan>
    </text>
    <rect x="603" y="205" width="9" height="14" fill="#4ade80">
      <animate attributeName="opacity" values="1;1;0;0" dur="1.05s" repeatCount="indefinite"/>
    </rect>

    <!-- right telemetry readout -->
    <line x1="772" y1="74" x2="772" y2="182" stroke="#d4a017" stroke-width="1" opacity="0.18"/>
    <text x="792" y="90" fill="#4ade80" opacity="0.7" font-family="ui-monospace,'SF Mono',Menlo,Consolas,monospace" font-size="9" letter-spacing="3">TELEMETRY</text>
    <g font-family="ui-monospace,'SF Mono',Menlo,Consolas,monospace" font-size="11.5" letter-spacing="0.5">
      <text x="792" y="118" fill="#7e8a9c">WW3·DIA</text>     <text x="934" y="118" text-anchor="end" fill="#d4a017">16.8&#215;</text>
      <text x="792" y="140" fill="#7e8a9c">RRTMGP</text>      <text x="934" y="140" text-anchor="end" fill="#d4a017">33&#215;</text>
      <text x="792" y="162" fill="#7e8a9c">GPU·KERNELS</text> <text x="934" y="162" text-anchor="end" fill="#4ade80">16</text>
    </g>

    <!-- baseline scan -->
    <line x1="64" y1="256" x2="936" y2="256" stroke="#d4a017" stroke-width="0.7" opacity="0.22"/>
    <circle cy="256" r="3" fill="#4ade80" filter="url(#glow)">
      <animate attributeName="cx" values="64;936;64" keyTimes="0;0.5;1" dur="7s" repeatCount="indefinite"/>
      <animate attributeName="opacity" values="0;1;1;1;0" keyTimes="0;0.05;0.5;0.95;1" dur="7s" repeatCount="indefinite"/>
    </circle>
  </g>
  <rect x="0.5" y="0.5" width="999" height="289" rx="12" fill="none" stroke="#d4a017" stroke-width="1" opacity="0.18"/>
</svg>
